# xmcd
#
# Track frame offsets: 
#        150
#        23491
#        71174
#        107166
#        122750
#        144962
#
# Disc length: 2320 seconds
#
# Revision: 0
# Processed by: cddbd v1.5.2PL0 Copyright (c) Steve Scherf et al.
# Submitted via: ExactAudioCopy v0.95b4
#
DISCID=4c090e06
DTITLE=Godsmack - 2004-12-12-Oakdale Theatre-Wallingford, CT [CD2]
DYEAR=2004
DGENRE=Blues
TTITLE0=Spiral
TTITLE1=Batalla De Los Tambores
TTITLE2=Keep Away
TTITLE3=Nobody Cares
TTITLE4=Touche
TTITLE5=Reefer Head Woman
EXTD=
EXTT0=
EXTT1=
EXTT2=
EXTT3=
EXTT4=
EXTT5=
PLAYORDER=
